<mxfile host="app.diagrams.net" modified="2020-11-09T13:40:33.431Z" agent="5.0 (Windows NT 10.0; Win64; x64) AppleWebKit/537.36 (KHTML, like Gecko) Chrome/85.0.4183.121 Safari/537.36 OPR/71.0.3770.310" etag="oACOlllh2XZxjENtKCDq" version="13.9.2" type="github">
  <diagram id="YNwttTUjVjMDM1bjcJ96" name="Page-1">
    <mxGraphModel dx="552" dy="306" grid="1" gridSize="1" guides="1" tooltips="1" connect="1" arrows="1" fold="1" page="1" pageScale="1" pageWidth="827" pageHeight="1169" math="0" shadow="0">
      <root>
        <mxCell id="0" />
        <mxCell id="1" parent="0" />
        <mxCell id="rlLokBMwU659o909w6AD-12" value="" style="verticalLabelPosition=bottom;verticalAlign=top;html=1;shape=mxgraph.basic.orthogonal_triangle;fillColor=#000000;rotation=90;" vertex="1" parent="1">
          <mxGeometry x="252" y="428" width="100" height="42" as="geometry" />
        </mxCell>
        <mxCell id="rlLokBMwU659o909w6AD-5" value="" style="shape=or;whiteSpace=wrap;html=1;rotation=90;" vertex="1" parent="1">
          <mxGeometry x="346.5" y="445.5" width="29" height="70" as="geometry" />
        </mxCell>
        <mxCell id="rlLokBMwU659o909w6AD-6" value="" style="rounded=0;whiteSpace=wrap;html=1;rotation=90;" vertex="1" parent="1">
          <mxGeometry x="325.5" y="395.5" width="71" height="70" as="geometry" />
        </mxCell>
        <mxCell id="rlLokBMwU659o909w6AD-7" value="" style="rounded=0;whiteSpace=wrap;html=1;rotation=90;" vertex="1" parent="1">
          <mxGeometry x="361.75" y="384.25" width="23.5" height="45" as="geometry" />
        </mxCell>
        <mxCell id="rlLokBMwU659o909w6AD-8" value="" style="rounded=0;whiteSpace=wrap;html=1;" vertex="1" parent="1">
          <mxGeometry x="351" y="418" width="45" height="20" as="geometry" />
        </mxCell>
        <mxCell id="rlLokBMwU659o909w6AD-9" value="" style="rounded=0;whiteSpace=wrap;html=1;" vertex="1" parent="1">
          <mxGeometry x="351" y="438" width="45" height="28" as="geometry" />
        </mxCell>
        <mxCell id="rlLokBMwU659o909w6AD-10" value="" style="verticalLabelPosition=bottom;verticalAlign=top;html=1;shape=mxgraph.basic.orthogonal_triangle;rotation=90;fillColor=#000000;" vertex="1" parent="1">
          <mxGeometry x="374.75" y="416.25" width="70" height="27.5" as="geometry" />
        </mxCell>
      </root>
    </mxGraphModel>
  </diagram>
</mxfile>
